<svg width="35" height="28" viewBox="0 0 35 28" fill="none" xmlns="http://www.w3.org/2000/svg">
<path d="M17.0953 20.4928C16.3623 20.4931 15.6395 20.3203 14.9855 19.9886L6.01441 15.4786V19.4075C6.01272 21.0159 6.86924 22.5028 8.26122 23.3083L14.8366 27.1205C16.23 27.923 17.945 27.923 19.3384 27.1205L25.9259 23.3325C27.319 22.5292 28.1784 21.044 28.1806 19.4359V15.4746L19.2052 19.9886C18.5512 20.3203 17.8284 20.4931 17.0953 20.4928Z" fill="url(#paint0_linear_28_622)"/>
<path d="M33.2995 8.29847L19.3098 0.84006C17.9259 0.0896088 16.2565 0.0896088 14.8726 0.84006L0.890807 8.29847C0.52388 8.51514 0.245036 8.85392 0.103187 9.25602C-0.0386343 9.65784 -0.0341249 10.0968 0.115849 10.4958C0.265824 10.8945 0.551713 11.228 0.923135 11.4367L6.01393 14.0023L14.9851 18.5042C16.3112 19.1761 17.8785 19.1761 19.2047 18.5042L28.1801 14.0023L30.0316 13.0746L30.0319 21.203C29.5361 21.3929 29.1588 21.8046 29.0122 22.3147C28.8659 22.8249 28.9674 23.3741 29.2868 23.7982C29.6062 24.222 30.1062 24.4713 30.6369 24.4713C31.1676 24.4713 31.6676 24.222 31.9869 23.7982C32.3063 23.3742 32.4079 22.8249 32.2616 22.3147C32.115 21.8046 31.7376 21.3929 31.2419 21.203V12.4573L33.2588 11.4367C33.6302 11.2279 33.9161 10.8945 34.0661 10.4958C34.2161 10.0968 34.2206 9.65783 34.0788 9.25602C33.9372 8.85393 33.6581 8.51515 33.2911 8.29847H33.2995Z" fill="url(#paint1_linear_28_622)"/>
<defs>
<linearGradient id="paint0_linear_28_622" x1="2.67733" y1="15.0153" x2="121.308" y2="122.872" gradientUnits="userSpaceOnUse">
<stop stop-color="#1DA1F2"/>
<stop offset="1" stop-color="#004B9C"/>
</linearGradient>
<linearGradient id="paint1_linear_28_622" x1="-5.14602" y1="-0.630066" x2="217.07" y2="157.087" gradientUnits="userSpaceOnUse">
<stop stop-color="#1DA1F2"/>
<stop offset="1" stop-color="#004B9C"/>
</linearGradient>
</defs>
</svg>
